<svg width="60" height="60" viewBox="0 0 60 60" fill="none" xmlns="http://www.w3.org/2000/svg">
<path d="M58.8861 26.7719C57.8807 25.4683 56.3611 24.7206 54.7171 24.7206H49.2904C49.3127 24.1376 49.324 23.5516 49.324 22.9632C49.324 21.9927 48.5372 21.2059 47.5666 21.2059H1.75735C0.786802 21.2058 5.43737e-06 21.9927 5.43737e-06 22.9632C5.43737e-06 33.4138 3.55348 43.0725 9.495 49.3241H1.75735C1.14821 49.3241 0.582545 49.6394 0.262388 50.1575C-0.057768 50.6756 -0.0868305 51.3226 0.185396 51.8673C2.65126 56.7989 7.73391 59.9854 13.1344 59.9854H36.1924C41.591 59.9854 46.6725 56.7989 49.1384 51.8673C49.4107 51.3225 49.3816 50.6756 49.0614 50.1575C48.7412 49.6394 48.1755 49.3241 47.5664 49.3241H39.8288C40.8852 48.2126 41.8662 46.9935 42.7651 45.6812C46.511 45.2502 50.1798 43.7297 53.182 41.3482C56.4613 38.7468 58.8189 35.2151 59.8205 31.4034C60.2466 29.7824 59.9059 28.0943 58.8861 26.7719ZM33.5075 34.2354V38.7797H29.9927V34.2354L31.7501 32.478L33.5075 34.2354ZM44.2493 52.8153C42.1845 55.0822 39.2538 56.4706 36.1927 56.4706H13.1345C10.0718 56.4706 7.14012 55.0822 5.07493 52.8153H44.2493ZM34.5793 49.324H14.7447C8.17336 44.3693 3.97782 35.1079 3.55079 24.7206H29.9927V29.2649L26.9927 32.2649C26.6632 32.5944 26.4779 33.0413 26.4779 33.5075V40.537C26.4779 41.5076 27.2647 42.2943 28.2353 42.2943H35.2648C36.2353 42.2943 37.0221 41.5076 37.0221 40.537V33.5075C37.0221 33.0415 36.8368 32.5945 36.5073 32.2649L33.5073 29.2649V24.6971H45.773C45.3932 33.9412 41.8392 43.8502 34.5793 49.324ZM56.4212 30.51C55.045 35.7476 50.5541 40.0324 45.1373 41.6259C47.1165 37.6392 48.4527 33.0795 49.0182 28.2354H54.7168C55.4643 28.2354 55.9061 28.6633 56.1027 28.9184C56.452 29.3711 56.568 29.9512 56.4212 30.51Z" fill="#5AB963"/>
<path d="M37.2574 14.5072C37.0098 14.2855 36.085 13.2614 36.085 12.3017C36.085 11.3813 36.9592 10.3703 37.2573 10.0962C38.7523 8.7576 39.5756 7.04432 39.5756 5.27221C39.5756 3.5001 38.7524 1.78682 37.2573 0.448187C36.5344 -0.199274 35.4233 -0.137985 34.7758 0.585062C34.1283 1.30823 34.1896 2.41916 34.9126 3.06662C35.6637 3.73928 36.0608 4.50194 36.0608 5.27209C36.0608 6.04225 35.6639 6.80514 34.9127 7.47768C34.6729 7.69248 32.5703 9.65174 32.5703 12.3017C32.5703 14.9517 34.673 16.9109 34.9127 17.1257C35.6361 17.7734 36.7471 17.7117 37.3943 16.9887C38.0417 16.2657 37.9805 15.1546 37.2574 14.5072ZM26.7131 14.5072C26.4655 14.2855 25.5407 13.2614 25.5407 12.3017C25.5407 11.3813 26.4149 10.3703 26.713 10.0962C28.208 8.7576 29.0313 7.04432 29.0313 5.27221C29.0313 3.5001 28.2081 1.78682 26.713 0.448187C25.99 -0.199274 24.879 -0.137985 24.2315 0.585062C23.584 1.30823 23.6453 2.41916 24.3683 3.06662C25.1194 3.73928 25.5165 4.50194 25.5165 5.27209C25.5165 6.04225 25.1196 6.80514 24.3684 7.47768C24.1287 7.69248 22.026 9.65174 22.026 12.3017C22.026 14.9517 24.1287 16.9109 24.3684 17.1257C25.0918 17.7734 26.2028 17.7117 26.85 16.9887C27.4974 16.2657 27.4361 15.1546 26.7131 14.5072ZM16.1688 14.5072C15.9212 14.2855 14.9964 13.2614 14.9964 12.3017C14.9964 11.3813 15.8706 10.3703 16.1687 10.0962C17.6637 8.7576 18.487 7.04432 18.487 5.27221C18.487 3.5001 17.6638 1.78682 16.1687 0.448187C15.4457 -0.199274 14.3346 -0.137985 13.6872 0.585062C13.0397 1.30823 13.101 2.41916 13.824 3.06662C14.5751 3.73928 14.9722 4.50194 14.9722 5.27209C14.9722 6.04225 14.5753 6.80514 13.8242 7.47768C13.5843 7.69248 11.4817 9.65174 11.4817 12.3017C11.4817 14.9517 13.5844 16.9109 13.8242 17.1257C14.5474 17.7734 15.6585 17.7117 16.3057 16.9887C16.9531 16.2657 16.8918 15.1546 16.1688 14.5072Z" fill="black"/>
</svg>
